<svg xmlns="http://www.w3.org/2000/svg" xmlns:xlink="http://www.w3.org/1999/xlink" fill="none" stroke="none" stroke-linecap="square" stroke-miterlimit="10" version="1.1" viewBox="0 0 635.236 341.976"><clipPath id="p.0"><path d="m0 0l635.2362 0l0 341.97638l-635.2362 0l0 -341.97638z" clip-rule="nonzero"/></clipPath><g clip-path="url(#p.0)"><path fill="#000" fill-opacity="0" fill-rule="evenodd" d="m0 0l635.2362 0l0 341.97638l-635.2362 0z"/><path fill="#f90" fill-rule="evenodd" d="m304.37192 69.005035l0 0c-43.454468 -59.352303 -120.13924 -83.668144 -189.65094 -60.136078c-69.51169 23.53206 -115.89033 89.50904 -114.7001 163.16922c1.1902182 73.66019 49.67602 138.09113 119.91138 159.34567c70.23536 21.254547 146.09418 -5.5473633 187.60822 -66.284424l-42.34323 -29.19107l0 0c-28.822113 42.32675 -81.54718 61.029205 -130.3784 46.247375c-48.83123 -14.781799 -82.548096 -59.65132 -83.37497 -110.9532c-0.8268814 -51.301888 31.42622 -97.247894 79.75539 -113.61518c48.329163 -16.367283 101.62924 0.6050644 131.8003 41.969177z"/><path fill="#4a86e8" fill-rule="evenodd" d="m627.5242 69.005035l0 0c-43.454468 -59.352303 -120.13925 -83.668144 -189.65094 -60.136078c-69.51169 23.53206 -115.89035 89.50904 -114.700134 163.16922c1.1902466 73.66019 49.676025 138.09113 119.91141 159.34567c70.23532 21.254547 146.09415 -5.5473633 187.60818 -66.284424l-42.3432 -29.19107l0 0c-28.822144 42.32675 -81.54721 61.029205 -130.37842 46.247375c-48.831238 -14.781799 -82.548096 -59.65132 -83.37497 -110.9532c-0.8269043 -51.301888 31.426208 -97.247894 79.75537 -113.61518c48.329193 -16.367283 101.62924 0.6050644 131.80026 41.969177z"/></g></svg>