<svg version="1.1" xmlns="http://www.w3.org/2000/svg" width="282" height="169"><desc>Created by Grid Painter http://grid-painter.appspot.com</desc><rect x="0" y="0" width="283" height="170" fill="#ffffff" stroke-width="0" /><path d="M73.4537920629 0.0L63.0614872174 6.0L63.0614872174 18.0L73.4537920629 24.0L83.8460969083 18.0L83.8460969083 6.0Z" fill="#d68937" stroke-width="0" /><path d="M94.2384017537 0.0L83.8460969083 6.0L83.8460969083 18.0L94.2384017537 24.0L104.630706599 18.0L104.630706599 6.0Z" fill="#d68937" stroke-width="0" /><path d="M21.4922678358 18.0L11.0999629904 24.0L11.0999629904 36.0L21.4922678358 42.0L31.8845726812 36.0L31.8845726812 24.0Z" fill="#707070" stroke-width="0" /><path d="M42.2768775266 18.0L31.8845726812 24.0L31.8845726812 36.0L42.2768775266 42.0L52.669182372 36.0L52.669182372 24.0Z" fill="#707070" stroke-width="0" /><path d="M63.0614872174 18.0L52.669182372 24.0L52.669182372 36.0L63.0614872174 42.0L73.4537920629 36.0L73.4537920629 24.0Z" fill="#707070" stroke-width="0" /><path d="M83.8460969083 18.0L73.4537920629 24.0L73.4537920629 36.0L83.8460969083 42.0L94.2384017537 36.0L94.2384017537 24.0Z" fill="#707070" stroke-width="0" /><path d="M104.630706599 18.0L94.2384017537 24.0L94.2384017537 36.0L104.630706599 42.0L115.023011445 36.0L115.023011445 24.0Z" fill="#707070" stroke-width="0" /><path d="M125.41531629 18.0L115.023011445 24.0L115.023011445 36.0L125.41531629 42.0L135.807621135 36.0L135.807621135 24.0Z" fill="#707070" stroke-width="0" /><path d="M146.199925981 18.0L135.807621135 24.0L135.807621135 36.0L146.199925981 42.0L156.592230826 36.0L156.592230826 24.0Z" fill="#707070" stroke-width="0" /><path d="M166.984535672 18.0L156.592230826 24.0L156.592230826 36.0L166.984535672 42.0L177.376840517 36.0L177.376840517 24.0Z" fill="#707070" stroke-width="0" /><path d="M187.769145362 18.0L177.376840517 24.0L177.376840517 36.0L187.769145362 42.0L198.161450208 36.0L198.161450208 24.0Z" fill="#707070" stroke-width="0" /><path d="M208.553755053 18.0L198.161450208 24.0L198.161450208 36.0L208.553755053 42.0L218.946059899 36.0L218.946059899 24.0Z" fill="#707070" stroke-width="0" /><path d="M229.338364744 18.0L218.946059899 24.0L218.946059899 36.0L229.338364744 42.0L239.730669589 36.0L239.730669589 24.0Z" fill="#707070" stroke-width="0" /><path d="M11.0999629904 36.0L0.707658144959 42.0L0.707658144959 54.0L11.0999629904 60.0L21.4922678358 54.0L21.4922678358 42.0Z" fill="#707070" stroke-width="0" /><path d="M31.8845726812 36.0L21.4922678358 42.0L21.4922678358 54.0L31.8845726812 60.0L42.2768775266 54.0L42.2768775266 42.0Z" fill="#d68937" stroke-width="0" /><path d="M52.669182372 36.0L42.2768775266 42.0L42.2768775266 54.0L52.669182372 60.0L63.0614872174 54.0L63.0614872174 42.0Z" fill="#d68937" stroke-width="0" /><path d="M73.4537920629 36.0L63.0614872174 42.0L63.0614872174 54.0L73.4537920629 60.0L83.8460969083 54.0L83.8460969083 42.0Z" fill="#d68937" stroke-width="0" /><path d="M94.2384017537 36.0L83.8460969083 42.0L83.8460969083 54.0L94.2384017537 60.0L104.630706599 54.0L104.630706599 42.0Z" fill="#d68937" stroke-width="0" /><path d="M115.023011445 36.0L104.630706599 42.0L104.630706599 54.0L115.023011445 60.0L125.41531629 54.0L125.41531629 42.0Z" fill="#d68937" stroke-width="0" /><path d="M135.807621135 36.0L125.41531629 42.0L125.41531629 54.0L135.807621135 60.0L146.199925981 54.0L146.199925981 42.0Z" fill="#d68937" stroke-width="0" /><path d="M156.592230826 36.0L146.199925981 42.0L146.199925981 54.0L156.592230826 60.0L166.984535672 54.0L166.984535672 42.0Z" fill="#d68937" stroke-width="0" /><path d="M177.376840517 36.0L166.984535672 42.0L166.984535672 54.0L177.376840517 60.0L187.769145362 54.0L187.769145362 42.0Z" fill="#d68937" stroke-width="0" /><path d="M198.161450208 36.0L187.769145362 42.0L187.769145362 54.0L198.161450208 60.0L208.553755053 54.0L208.553755053 42.0Z" fill="#d68937" stroke-width="0" /><path d="M218.946059899 36.0L208.553755053 42.0L208.553755053 54.0L218.946059899 60.0L229.338364744 54.0L229.338364744 42.0Z" fill="#d68937" stroke-width="0" /><path d="M239.730669589 36.0L229.338364744 42.0L229.338364744 54.0L239.730669589 60.0L250.122974435 54.0L250.122974435 42.0Z" fill="#707070" stroke-width="0" /><path d="M21.4922678358 54.0L11.0999629904 60.0L11.0999629904 72.0L21.4922678358 78.0L31.8845726812 72.0L31.8845726812 60.0Z" fill="#707070" stroke-width="0" /><path d="M42.2768775266 54.0L31.8845726812 60.0L31.8845726812 72.0L42.2768775266 78.0L52.669182372 72.0L52.669182372 60.0Z" fill="#d68937" stroke-width="0" /><path d="M63.0614872174 54.0L52.669182372 60.0L52.669182372 72.0L63.0614872174 78.0L73.4537920629 72.0L73.4537920629 60.0Z" fill="#4096ee" stroke-width="0" /><path d="M83.8460969083 54.0L73.4537920629 60.0L73.4537920629 72.0L83.8460969083 78.0L94.2384017537 72.0L94.2384017537 60.0Z" fill="#4096ee" stroke-width="0" /><path d="M104.630706599 54.0L94.2384017537 60.0L94.2384017537 72.0L104.630706599 78.0L115.023011445 72.0L115.023011445 60.0Z" fill="#d68937" stroke-width="0" /><path d="M125.41531629 54.0L115.023011445 60.0L115.023011445 72.0L125.41531629 78.0L135.807621135 72.0L135.807621135 60.0Z" fill="#d68937" stroke-width="0" /><path d="M146.199925981 54.0L135.807621135 60.0L135.807621135 72.0L146.199925981 78.0L156.592230826 72.0L156.592230826 60.0Z" fill="#8a725d" stroke-width="0" /><path d="M166.984535672 54.0L156.592230826 60.0L156.592230826 72.0L166.984535672 78.0L177.376840517 72.0L177.376840517 60.0Z" fill="#8a725d" stroke-width="0" /><path d="M187.769145362 54.0L177.376840517 60.0L177.376840517 72.0L187.769145362 78.0L198.161450208 72.0L198.161450208 60.0Z" fill="#d68937" stroke-width="0" /><path d="M208.553755053 54.0L198.161450208 60.0L198.161450208 72.0L208.553755053 78.0L218.946059899 72.0L218.946059899 60.0Z" fill="#4096ee" stroke-width="0" /><path d="M229.338364744 54.0L218.946059899 60.0L218.946059899 72.0L229.338364744 78.0L239.730669589 72.0L239.730669589 60.0Z" fill="#4096ee" stroke-width="0" /><path d="M250.122974435 54.0L239.730669589 60.0L239.730669589 72.0L250.122974435 78.0L260.51527928 72.0L260.51527928 60.0Z" fill="#707070" stroke-width="0" /><path d="M11.0999629904 72.0L0.707658144959 78.0L0.707658144959 90.0L11.0999629904 96.0L21.4922678358 90.0L21.4922678358 78.0Z" fill="#707070" stroke-width="0" /><path d="M31.8845726812 72.0L21.4922678358 78.0L21.4922678358 90.0L31.8845726812 96.0L42.2768775266 90.0L42.2768775266 78.0Z" fill="#eeeeee" stroke-width="0" /><path d="M52.669182372 72.0L42.2768775266 78.0L42.2768775266 90.0L52.669182372 96.0L63.0614872174 90.0L63.0614872174 78.0Z" fill="#4096ee" stroke-width="0" /><path d="M73.4537920629 72.0L63.0614872174 78.0L63.0614872174 90.0L73.4537920629 96.0L83.8460969083 90.0L83.8460969083 78.0Z" fill="#4096ee" stroke-width="0" /><path d="M94.2384017537 72.0L83.8460969083 78.0L83.8460969083 90.0L94.2384017537 96.0L104.630706599 90.0L104.630706599 78.0Z" fill="#4096ee" stroke-width="0" /><path d="M115.023011445 72.0L104.630706599 78.0L104.630706599 90.0L115.023011445 96.0L125.41531629 90.0L125.41531629 78.0Z" fill="#eeeeee" stroke-width="0" /><path d="M135.807621135 72.0L125.41531629 78.0L125.41531629 90.0L135.807621135 96.0L146.199925981 90.0L146.199925981 78.0Z" fill="#8a725d" stroke-width="0" /><path d="M156.592230826 72.0L146.199925981 78.0L146.199925981 90.0L156.592230826 96.0L166.984535672 90.0L166.984535672 78.0Z" fill="#4096ee" stroke-width="0" /><path d="M177.376840517 72.0L166.984535672 78.0L166.984535672 90.0L177.376840517 96.0L187.769145362 90.0L187.769145362 78.0Z" fill="#8a725d" stroke-width="0" /><path d="M198.161450208 72.0L187.769145362 78.0L187.769145362 90.0L198.161450208 96.0L208.553755053 90.0L208.553755053 78.0Z" fill="#eeeeee" stroke-width="0" /><path d="M218.946059899 72.0L208.553755053 78.0L208.553755053 90.0L218.946059899 96.0L229.338364744 90.0L229.338364744 78.0Z" fill="#4096ee" stroke-width="0" /><path d="M239.730669589 72.0L229.338364744 78.0L229.338364744 90.0L239.730669589 96.0L250.122974435 90.0L250.122974435 78.0Z" fill="#4096ee" stroke-width="0" /><path d="M260.51527928 72.0L250.122974435 78.0L250.122974435 90.0L260.51527928 96.0L270.907584126 90.0L270.907584126 78.0Z" fill="#707070" stroke-width="0" /><path d="M21.4922678358 90.0L11.0999629904 96.0L11.0999629904 108.0L21.4922678358 114.0L31.8845726812 108.0L31.8845726812 96.0Z" fill="#707070" stroke-width="0" /><path d="M42.2768775266 90.0L31.8845726812 96.0L31.8845726812 108.0L42.2768775266 114.0L52.669182372 108.0L52.669182372 96.0Z" fill="#eeeeee" stroke-width="0" /><path d="M63.0614872174 90.0L52.669182372 96.0L52.669182372 108.0L63.0614872174 114.0L73.4537920629 108.0L73.4537920629 96.0Z" fill="#eeeeee" stroke-width="0" /><path d="M83.8460969083 90.0L73.4537920629 96.0L73.4537920629 108.0L83.8460969083 114.0L94.2384017537 108.0L94.2384017537 96.0Z" fill="#eeeeee" stroke-width="0" /><path d="M104.630706599 90.0L94.2384017537 96.0L94.2384017537 108.0L104.630706599 114.0L115.023011445 108.0L115.023011445 96.0Z" fill="#eeeeee" stroke-width="0" /><path d="M125.41531629 90.0L115.023011445 96.0L115.023011445 108.0L125.41531629 114.0L135.807621135 108.0L135.807621135 96.0Z" fill="#eeeeee" stroke-width="0" /><path d="M146.199925981 90.0L135.807621135 96.0L135.807621135 108.0L146.199925981 114.0L156.592230826 108.0L156.592230826 96.0Z" fill="#8a725d" stroke-width="0" /><path d="M166.984535672 90.0L156.592230826 96.0L156.592230826 108.0L166.984535672 114.0L177.376840517 108.0L177.376840517 96.0Z" fill="#8a725d" stroke-width="0" /><path d="M187.769145362 90.0L177.376840517 96.0L177.376840517 108.0L187.769145362 114.0L198.161450208 108.0L198.161450208 96.0Z" fill="#eeeeee" stroke-width="0" /><path d="M208.553755053 90.0L198.161450208 96.0L198.161450208 108.0L208.553755053 114.0L218.946059899 108.0L218.946059899 96.0Z" fill="#eeeeee" stroke-width="0" /><path d="M229.338364744 90.0L218.946059899 96.0L218.946059899 108.0L229.338364744 114.0L239.730669589 108.0L239.730669589 96.0Z" fill="#eeeeee" stroke-width="0" /><path d="M250.122974435 90.0L239.730669589 96.0L239.730669589 108.0L250.122974435 114.0L260.51527928 108.0L260.51527928 96.0Z" fill="#eeeeee" stroke-width="0" /><path d="M270.907584126 90.0L260.51527928 96.0L260.51527928 108.0L270.907584126 114.0L281.299888971 108.0L281.299888971 96.0Z" fill="#707070" stroke-width="0" /><path d="M11.0999629904 108.0L0.707658144959 114.0L0.707658144959 126.0L11.0999629904 132.0L21.4922678358 126.0L21.4922678358 114.0Z" fill="#707070" stroke-width="0" /><path d="M31.8845726812 108.0L21.4922678358 114.0L21.4922678358 126.0L31.8845726812 132.0L42.2768775266 126.0L42.2768775266 114.0Z" fill="#eeeeee" stroke-width="0" /><path d="M52.669182372 108.0L42.2768775266 114.0L42.2768775266 126.0L52.669182372 132.0L63.0614872174 126.0L63.0614872174 114.0Z" fill="#eeeeee" stroke-width="0" /><path d="M73.4537920629 108.0L63.0614872174 114.0L63.0614872174 126.0L73.4537920629 132.0L83.8460969083 126.0L83.8460969083 114.0Z" fill="#000000" stroke-width="0" /><path d="M94.2384017537 108.0L83.8460969083 114.0L83.8460969083 126.0L94.2384017537 132.0L104.630706599 126.0L104.630706599 114.0Z" fill="#000000" stroke-width="0" /><path d="M115.023011445 108.0L104.630706599 114.0L104.630706599 126.0L115.023011445 132.0L125.41531629 126.0L125.41531629 114.0Z" fill="#eeeeee" stroke-width="0" /><path d="M135.807621135 108.0L125.41531629 114.0L125.41531629 126.0L135.807621135 132.0L146.199925981 126.0L146.199925981 114.0Z" fill="#8a725d" stroke-width="0" /><path d="M156.592230826 108.0L146.199925981 114.0L146.199925981 126.0L156.592230826 132.0L166.984535672 126.0L166.984535672 114.0Z" fill="#8a725d" stroke-width="0" /><path d="M177.376840517 108.0L166.984535672 114.0L166.984535672 126.0L177.376840517 132.0L187.769145362 126.0L187.769145362 114.0Z" fill="#eeeeee" stroke-width="0" /><path d="M198.161450208 108.0L187.769145362 114.0L187.769145362 126.0L198.161450208 132.0L208.553755053 126.0L208.553755053 114.0Z" fill="#000000" stroke-width="0" /><path d="M218.946059899 108.0L208.553755053 114.0L208.553755053 126.0L218.946059899 132.0L229.338364744 126.0L229.338364744 114.0Z" fill="#000000" stroke-width="0" /><path d="M239.730669589 108.0L229.338364744 114.0L229.338364744 126.0L239.730669589 132.0L250.122974435 126.0L250.122974435 114.0Z" fill="#eeeeee" stroke-width="0" /><path d="M260.51527928 108.0L250.122974435 114.0L250.122974435 126.0L260.51527928 132.0L270.907584126 126.0L270.907584126 114.0Z" fill="#707070" stroke-width="0" /><path d="M21.4922678358 126.0L11.0999629904 132.0L11.0999629904 144.0L21.4922678358 150.0L31.8845726812 144.0L31.8845726812 132.0Z" fill="#707070" stroke-width="0" /><path d="M42.2768775266 126.0L31.8845726812 132.0L31.8845726812 144.0L42.2768775266 150.0L52.669182372 144.0L52.669182372 132.0Z" fill="#707070" stroke-width="0" /><path d="M63.0614872174 126.0L52.669182372 132.0L52.669182372 144.0L63.0614872174 150.0L73.4537920629 144.0L73.4537920629 132.0Z" fill="#000000" stroke-width="0" /><path d="M83.8460969083 126.0L73.4537920629 132.0L73.4537920629 144.0L83.8460969083 150.0L94.2384017537 144.0L94.2384017537 132.0Z" fill="#707070" stroke-width="0" /><path d="M104.630706599 126.0L94.2384017537 132.0L94.2384017537 144.0L104.630706599 150.0L115.023011445 144.0L115.023011445 132.0Z" fill="#000000" stroke-width="0" /><path d="M125.41531629 126.0L115.023011445 132.0L115.023011445 144.0L125.41531629 150.0L135.807621135 144.0L135.807621135 132.0Z" fill="#707070" stroke-width="0" /><path d="M146.199925981 126.0L135.807621135 132.0L135.807621135 144.0L146.199925981 150.0L156.592230826 144.0L156.592230826 132.0Z" fill="#707070" stroke-width="0" /><path d="M166.984535672 126.0L156.592230826 132.0L156.592230826 144.0L166.984535672 150.0L177.376840517 144.0L177.376840517 132.0Z" fill="#707070" stroke-width="0" /><path d="M187.769145362 126.0L177.376840517 132.0L177.376840517 144.0L187.769145362 150.0L198.161450208 144.0L198.161450208 132.0Z" fill="#000000" stroke-width="0" /><path d="M208.553755053 126.0L198.161450208 132.0L198.161450208 144.0L208.553755053 150.0L218.946059899 144.0L218.946059899 132.0Z" fill="#707070" stroke-width="0" /><path d="M229.338364744 126.0L218.946059899 132.0L218.946059899 144.0L229.338364744 150.0L239.730669589 144.0L239.730669589 132.0Z" fill="#000000" stroke-width="0" /><path d="M250.122974435 126.0L239.730669589 132.0L239.730669589 144.0L250.122974435 150.0L260.51527928 144.0L260.51527928 132.0Z" fill="#707070" stroke-width="0" /><path d="M73.4537920629 144.0L63.0614872174 150.0L63.0614872174 162.0L73.4537920629 168.0L83.8460969083 162.0L83.8460969083 150.0Z" fill="#000000" stroke-width="0" /><path d="M94.2384017537 144.0L83.8460969083 150.0L83.8460969083 162.0L94.2384017537 168.0L104.630706599 162.0L104.630706599 150.0Z" fill="#000000" stroke-width="0" /><path d="M198.161450208 144.0L187.769145362 150.0L187.769145362 162.0L198.161450208 168.0L208.553755053 162.0L208.553755053 150.0Z" fill="#000000" stroke-width="0" /><path d="M218.946059899 144.0L208.553755053 150.0L208.553755053 162.0L218.946059899 168.0L229.338364744 162.0L229.338364744 150.0Z" fill="#000000" stroke-width="0" /></svg>